<svg width="16" height="16" viewBox="0 0 16 16" fill="none" xmlns="http://www.w3.org/2000/svg">
<g clip-path="url(#clip0_10260_43827)">
<path d="M7.29857 13.1235H2.14068C1.74983 13.1235 1.37499 12.9682 1.09862 12.6918C0.822255 12.4155 0.666992 12.0406 0.666992 11.6498V5.0182C0.666992 4.62735 0.822255 4.25251 1.09862 3.97614C1.37499 3.69977 1.74983 3.54451 2.14068 3.54451H2.87752C3.26836 3.54451 3.6432 3.38925 3.91957 3.11288C4.19594 2.83651 4.3512 2.46167 4.3512 2.07083C4.3512 1.8754 4.42883 1.68799 4.56702 1.5498C4.7052 1.41162 4.89262 1.33398 5.08804 1.33398H9.5091C9.70452 1.33398 9.89194 1.41162 10.0301 1.5498C10.1683 1.68799 10.2459 1.8754 10.2459 2.07083C10.2459 2.46167 10.4012 2.83651 10.6776 3.11288C10.9539 3.38925 11.3288 3.54451 11.7196 3.54451H12.4565C12.8473 3.54451 13.2221 3.69977 13.4985 3.97614C13.7749 4.25251 13.9301 4.62735 13.9301 5.0182V7.59714M10.2459 12.3866H14.667M12.4565 10.1761V14.5971" stroke="#1B1B1B" stroke-width="2" stroke-linecap="round" stroke-linejoin="round"/>
<path d="M5.08789 7.96639C5.08789 8.55265 5.32078 9.11491 5.73534 9.52946C6.14989 9.94402 6.71215 10.1769 7.29842 10.1769C7.88468 10.1769 8.44694 9.94402 8.8615 9.52946C9.27605 9.11491 9.50894 8.55265 9.50894 7.96639C9.50894 7.38012 9.27605 6.81786 8.8615 6.40331C8.44694 5.98875 7.88468 5.75586 7.29842 5.75586C6.71215 5.75586 6.14989 5.98875 5.73534 6.40331C5.32078 6.81786 5.08789 7.38012 5.08789 7.96639Z" stroke="#1B1B1B" stroke-width="2" stroke-linecap="round" stroke-linejoin="round"/>
</g>
<defs>
<clipPath id="clip0_10260_43827">
<rect width="16" height="16" fill="white"/>
</clipPath>
</defs>
</svg>
