<svg width="18" height="15" viewBox="0 0 18 15" fill="none" xmlns="http://www.w3.org/2000/svg">
<path d="M16.9834 0.833008L11.3068 13.9328C11.2685 14.0025 11.207 14.0615 11.1296 14.1029C11.0522 14.1443 10.9621 14.1663 10.8702 14.1663C10.7782 14.1663 10.6881 14.1443 10.6107 14.1029C10.5333 14.0615 10.4718 14.0025 10.4335 13.9328L7.37687 8.83845L1.26362 6.29126C1.18001 6.25933 1.10915 6.20807 1.05948 6.14356C1.0098 6.07906 0.983398 6.00403 0.983398 5.92738C0.983398 5.85073 1.0098 5.7757 1.05948 5.7112C1.10915 5.64669 1.18001 5.59543 1.26362 5.5635L16.9834 0.833008Z" stroke="#1B1B1B" stroke-linecap="round" stroke-linejoin="round"/>
</svg>
