<svg width="32" height="32" viewBox="0 0 32 32" fill="none" xmlns="http://www.w3.org/2000/svg">
<path d="M6.74297 9.85896C7.56541 9.50898 8.42278 9.33398 9.33268 9.33398C10.2426 9.33398 11.1 9.50898 11.9224 9.85896C12.7448 10.2089 13.4622 10.6814 14.0571 11.2762C14.652 11.8712 15.1245 12.5886 15.4744 13.4109C15.8243 14.2334 15.9993 15.0908 15.9993 16.0007C15.9993 16.9106 15.8244 17.7679 15.4744 18.5904C15.1244 19.4128 14.6519 20.1301 14.0571 20.7251C13.4622 21.32 12.7447 21.7925 11.9224 22.1423C11.1 22.4923 10.2426 22.6673 9.33268 22.6673C8.42278 22.6673 7.56541 22.4923 6.74297 22.1423C5.92052 21.7924 5.2032 21.3199 4.60826 20.7251C4.01332 20.1301 3.54085 19.4127 3.19099 18.5904C2.84102 17.7679 2.66602 16.9106 2.66602 16.0007C2.66602 15.0908 2.84101 14.2334 3.19099 13.4109C3.54096 12.5885 4.01343 11.8712 4.60826 11.2762C5.2032 10.6813 5.92064 10.2088 6.74297 9.85896ZM13.9345 19.3778C14.6694 18.3629 15.0368 17.2431 15.0368 16.0007V15.9832L14.6169 16.3507C14.4244 16.5257 14.1269 16.5082 13.9519 16.3332L12.6921 15.1609C12.5696 15.0384 12.5171 14.8634 12.5345 14.6884L12.8669 13.0086C12.9194 12.7636 13.1469 12.5886 13.4094 12.6061L13.9518 12.6586C13.1994 11.6437 12.237 10.9439 11.0471 10.5588L11.257 11.0662C11.3621 11.3112 11.257 11.5736 11.0471 11.6961L9.54228 12.5186C9.38476 12.606 9.20989 12.606 9.05235 12.5186L7.54751 11.6961C7.32001 11.5736 7.23258 11.2936 7.33759 11.0662L7.54751 10.5588C6.35763 10.9438 5.39522 11.6437 4.64283 12.6586L5.20273 12.6061C5.46516 12.5887 5.69267 12.7636 5.74517 13.0086L6.07757 14.6884C6.11261 14.8634 6.0601 15.0384 5.92004 15.1434L4.66017 16.3157C4.46771 16.4907 4.1877 16.4907 3.99523 16.3332L3.57526 15.9658V15.9832C3.57526 17.2257 3.9427 18.3629 4.6776 19.3604L4.80009 18.8179C4.85259 18.573 5.09755 18.398 5.35999 18.433L7.05726 18.6429C7.23225 18.6604 7.3722 18.7654 7.45974 18.9229L8.17718 20.4803C8.28219 20.7078 8.19464 20.9877 7.98472 21.1277L7.51225 21.4077C8.08972 21.6002 8.68458 21.7052 9.29698 21.7052C9.90939 21.7052 10.5044 21.6002 11.0817 21.4077L10.6092 21.1277C10.3817 20.9878 10.2943 20.7252 10.4168 20.4803L11.1342 18.9229C11.2042 18.7654 11.3617 18.6605 11.5367 18.6429L13.234 18.433C13.4964 18.398 13.7239 18.5729 13.7939 18.8179L13.9345 19.3778ZM7.49522 15.1959L9.03499 14.0761C9.20998 13.9536 9.45496 13.9536 9.62993 14.0761L11.1697 15.1959C11.3447 15.3184 11.4147 15.5458 11.3447 15.7558L10.7497 17.5581C10.6798 17.768 10.4873 17.9081 10.2773 17.9081H8.37007C8.16015 17.9081 7.9676 17.7681 7.8976 17.5581L7.30266 15.7558C7.23269 15.5457 7.32024 15.3183 7.49523 15.1959H7.49522Z" fill="#949494"/>
<path d="M20.9444 11.5566L19 13.2233L20.9444 15.1678" stroke="#949494" stroke-linecap="round" stroke-linejoin="round"/>
<path d="M19 13.2227H25.3872C27.2991 13.2227 28.9228 14.7839 28.9973 16.6949C29.0761 18.7142 27.4075 20.4449 25.3872 20.4449H20.6662" stroke="#949494" stroke-linecap="round" stroke-linejoin="round"/>
</svg>
