<svg width="16" height="18" viewBox="0 0 16 18" fill="none" xmlns="http://www.w3.org/2000/svg">
<mask id="path-1-inside-1_355_7142" fill="white">
<path d="M12.4772 4.58296C12.4772 7.06816 10.4624 9.08291 7.97724 9.08291C5.49204 9.08291 3.47729 7.06816 3.47729 4.58296C3.47729 2.09755 5.49204 0.0830078 7.97724 0.0830078C10.4624 0.0830078 12.4772 2.09755 12.4772 4.58296"/>
</mask>
<path d="M11.4772 4.58296C11.4772 6.51588 9.91016 8.08291 7.97724 8.08291V10.0829C11.0147 10.0829 13.4772 7.62045 13.4772 4.58296H11.4772ZM7.97724 8.08291C6.04432 8.08291 4.47729 6.51588 4.47729 4.58296H2.47729C2.47729 7.62045 4.93975 10.0829 7.97724 10.0829V8.08291ZM4.47729 4.58296C4.47729 2.64986 6.04429 1.08301 7.97724 1.08301V-0.916992C4.93978 -0.916992 2.47729 1.54523 2.47729 4.58296H4.47729ZM7.97724 1.08301C9.91019 1.08301 11.4772 2.64986 11.4772 4.58296H13.4772C13.4772 1.54523 11.0147 -0.916992 7.97724 -0.916992V1.08301Z" fill="#1B1B1B" mask="url(#path-1-inside-1_355_7142)"/>
<path d="M0.992342 17.2161C1.22915 13.2426 4.27714 10.416 7.97728 10.416C11.6776 10.416 14.7257 13.2425 14.9627 17.2161H0.992342Z" stroke="#1B1B1B"/>
</svg>
