<svg width="30" height="28" viewBox="0 0 30 28" fill="none" xmlns="http://www.w3.org/2000/svg">
<path d="M1.6875 3.07975C1.6875 2.4338 2.21114 1.91016 2.85709 1.91016H27.5355C28.1814 1.91016 28.705 2.4338 28.705 3.07975V14.1909V25.302C28.705 25.9479 28.1814 26.4716 27.5355 26.4716H2.85709C2.21114 26.4716 1.6875 25.9479 1.6875 25.302V14.1909V3.07975Z" fill="#F7F4ED"/>
<path d="M1.6875 14.1909V25.302C1.6875 25.9479 2.21114 26.4716 2.85709 26.4716H27.5355C28.1814 26.4716 28.705 25.9479 28.705 25.302V14.1909M1.6875 14.1909V3.07975C1.6875 2.4338 2.21114 1.91016 2.85709 1.91016H27.5355C28.1814 1.91016 28.705 2.4338 28.705 3.07975V14.1909M1.6875 14.1909H28.705" stroke="#E2B184" stroke-width="1.94932"/>
<ellipse cx="15.1945" cy="14.1906" rx="5.40351" ry="5.40351" fill="#F7F4ED" stroke="#E2B184" stroke-width="1.94932"/>
</svg>
