<svg width="16" height="19" viewBox="0 0 16 19" fill="none" xmlns="http://www.w3.org/2000/svg">
<mask id="path-1-inside-1_10658_55246" fill="white">
<path d="M12.4999 5.26313C12.4999 7.74834 10.4852 9.76308 7.99995 9.76308C5.51474 9.76308 3.5 7.74834 3.5 5.26313C3.5 2.77772 5.51474 0.763184 7.99995 0.763184C10.4852 0.763184 12.4999 2.77772 12.4999 5.26313Z"/>
</mask>
<path d="M11.4999 5.26313C11.4999 7.19605 9.93287 8.76308 7.99995 8.76308V10.7631C11.0374 10.7631 13.4999 8.30062 13.4999 5.26313H11.4999ZM7.99995 8.76308C6.06703 8.76308 4.5 7.19605 4.5 5.26313H2.5C2.5 8.30062 4.96246 10.7631 7.99995 10.7631V8.76308ZM4.5 5.26313C4.5 3.33004 6.067 1.76318 7.99995 1.76318V-0.236816C4.96249 -0.236816 2.5 2.22541 2.5 5.26313H4.5ZM7.99995 1.76318C9.9329 1.76318 11.4999 3.33004 11.4999 5.26313H13.4999C13.4999 2.22541 11.0374 -0.236816 7.99995 -0.236816V1.76318Z" fill="#1B1B1B" mask="url(#path-1-inside-1_10658_55246)"/>
<path d="M1.0148 17.8963C1.25161 13.9228 4.29961 11.0962 7.99974 11.0962C11.7001 11.0962 14.7482 13.9227 14.9852 17.8963H1.0148Z" stroke="#1B1B1B"/>
</svg>
