<svg width="20" height="20" viewBox="0 0 20 20" fill="none" xmlns="http://www.w3.org/2000/svg">
<path d="M2.56057 14.7058L2.55406 14.7254C1.82344 13.5233 1.35951 12.1664 1.2531 10.6531L1.31622 10.6065L4.10776 8.54602L6.89802 9.71402L7.80824 12.6398L6.12954 14.7058H2.66107H2.56057ZM12.1817 18.473L12.167 18.5179C10.7425 18.89 9.27128 18.8963 7.84511 18.537L7.82421 18.473L6.75969 15.2128L8.43914 13.0811H11.5003L13.2457 15.2144L12.1817 18.473ZM18.7009 10.6644L18.755 10.6284C18.6513 12.1578 18.1801 13.5266 17.3882 14.737L17.3778 14.7056H17.2773H13.8085L12.1312 12.6413L13.107 9.71379L15.8312 8.54626L18.6222 10.6063L18.7009 10.6644ZM13.2268 1.91231L13.2228 1.90047C14.5638 2.47367 15.7871 3.35114 16.7109 4.44006H16.6995L16.6685 4.53702L15.6009 7.87335L12.8095 8.97698L10.3466 7.22697V4.03821L13.1452 1.97251L13.2268 1.91231ZM17.2424 5.26293H17.2744C18.1683 6.50157 18.6869 8.05283 18.766 9.6739L18.7085 9.71227L16.3534 7.99369L17.2424 5.26293ZM4.33732 7.87337L3.26981 4.5372L3.23878 4.44024H3.22735C4.15728 3.34418 5.39058 2.46238 6.74186 1.88941L6.74058 1.89451L6.71752 1.98666L6.79482 2.04187L9.59163 4.03958V7.22697L7.12873 8.97701L4.33732 7.87337ZM16.8532 15.5601C15.8701 16.7844 14.5721 17.6955 13.0789 18.2916L13.023 18.2543L13.912 15.4604H16.8283L16.8532 15.5601ZM1.23933 9.69128C1.31542 8.0653 1.83304 6.50718 2.6669 5.2631H2.69567L3.58474 7.99387L1.24748 9.69943L1.23933 9.69128ZM19.5243 10.0862C19.5243 4.77553 15.2477 0.497248 10.0032 0.497248C4.69187 0.497248 0.41424 4.77447 0.41424 10.0862C0.41424 15.3303 4.69211 19.6073 10.0032 19.6073C15.2466 19.6073 19.5243 15.3301 19.5243 10.0862ZM10.0031 3.32145L7.65283 1.66999L7.66511 1.63319C9.16034 1.19276 10.7802 1.19249 12.3413 1.63413L12.3533 1.66999L10.0031 3.32145ZM6.02591 15.4605L6.92099 18.2736L6.90984 18.2847C5.42379 17.6886 4.13195 16.7798 3.1526 15.5599L3.1775 15.4605H6.02591ZM10.002 7.88039L12.2869 9.59418L11.3974 12.3263H8.54073L7.65166 9.5955L10.002 7.88039Z" fill="white" stroke="white" stroke-width="0.278942"/>
</svg>
