<svg width="18" height="19" viewBox="0 0 18 19" fill="none" xmlns="http://www.w3.org/2000/svg">
<path d="M3.5 5.10547H2.5C1.96957 5.10547 1.46086 5.31618 1.08579 5.69126C0.710714 6.06633 0.5 6.57504 0.5 7.10547V16.1055C0.5 16.6359 0.710714 17.1446 1.08579 17.5197C1.46086 17.8948 1.96957 18.1055 2.5 18.1055H11.5C12.0304 18.1055 12.5391 17.8948 12.9142 17.5197C13.2893 17.1446 13.5 16.6359 13.5 16.1055V15.1055" stroke="#1B1B1B" stroke-linecap="round" stroke-linejoin="round"/>
<path d="M12.5 3.10558L15.5 6.10558M16.885 4.69058C17.2788 4.29673 17.5001 3.76256 17.5001 3.20558C17.5001 2.64859 17.2788 2.11442 16.885 1.72058C16.4912 1.32673 15.957 1.10547 15.4 1.10547C14.843 1.10547 14.3088 1.32673 13.915 1.72058L5.5 10.1056V13.1056H8.5L16.885 4.69058Z" stroke="#1B1B1B" stroke-linecap="round" stroke-linejoin="round"/>
</svg>
