<svg width="21" height="18" viewBox="0 0 21 18" fill="none" xmlns="http://www.w3.org/2000/svg">
<path d="M17.4027 8.41131C17.4027 8.41131 17.3937 8.40049 17.3891 8.39402C17.3299 8.32288 17.2549 8.26679 17.1641 8.22799C17.0732 8.18709 16.9708 8.16543 16.8573 8.16122C16.7823 8.16122 16.7095 8.15911 16.6345 8.15686C16.3232 8.15039 16.0096 8.15039 15.6958 8.15039H15.6753H15.6003C15.3912 8.15039 15.1799 8.15475 14.9707 8.15896H14.9593C14.5434 8.16979 14.2729 8.44139 14.2637 8.83374V8.88337C14.2569 9.13557 14.2569 9.3879 14.2591 9.64011C14.2591 9.73064 14.2614 9.82117 14.2637 9.91396C14.2728 10.3084 14.5479 10.5673 14.9637 10.5779H14.9683H15.0138H15.0684C15.2184 10.58 15.3683 10.5779 15.5185 10.5779H15.9027C16.1322 10.5779 16.3618 10.58 16.5914 10.5779H16.6391H16.8188H16.8643H16.8733C16.8733 10.5779 16.8938 10.5779 16.9052 10.5758H16.912C17.2984 10.537 17.5394 10.2977 17.5506 9.91832C17.5642 9.54973 17.5642 9.18099 17.5506 8.81448C17.5438 8.65702 17.4939 8.51912 17.4074 8.41128L17.4027 8.41131Z" fill="#1B1B1B"/>
<path d="M7.03773 12.254C6.38084 12.2432 5.72623 12.2411 5.06934 12.254C4.69437 12.2626 4.43072 12.5214 4.41928 12.8792C4.40564 13.2651 4.40342 13.651 4.41928 14.0348C4.43513 14.3992 4.71925 14.6428 5.10563 14.6535H5.1329H6.0761C6.38971 14.6535 6.70571 14.6578 7.01929 14.6535C7.40568 14.6449 7.68759 14.3925 7.69664 14.0283C7.70805 13.6424 7.71027 13.2565 7.69664 12.8727C7.683 12.5235 7.4057 12.2582 7.03756 12.2518L7.03773 12.254Z" fill="#1B1B1B"/>
<path d="M12.4545 12.465C12.3637 12.3615 12.234 12.2946 12.075 12.2666C12.0272 12.2581 11.9773 12.2537 11.925 12.2516C11.6114 12.2472 11.2954 12.2451 10.9818 12.2451C10.6682 12.2451 10.3522 12.2472 10.0386 12.2516C9.98626 12.2516 9.93632 12.2581 9.88859 12.2666C9.72941 12.2946 9.59987 12.3615 9.50903 12.465C9.40454 12.5749 9.34081 12.7194 9.33399 12.8897C9.31575 13.2647 9.31575 13.6443 9.33399 14.0194C9.35222 14.4097 9.64078 14.6533 10.0614 14.6575H10.0728H10.1069C10.3752 14.6596 10.6457 14.6575 10.9138 14.6575H10.982H11.0501H11.857H11.8911H11.9025C12.323 14.6531 12.6117 14.4095 12.6299 14.0194C12.6482 13.6443 12.6482 13.2647 12.6299 12.8897C12.6209 12.7193 12.5571 12.5749 12.4549 12.465H12.4545Z" fill="#1B1B1B"/>
<path d="M15.0114 2.94644H16.032C16.3843 2.94644 16.6685 2.67484 16.6685 2.34278V0.714995C16.6685 0.380834 16.3821 0.111328 16.032 0.111328H15.0114C14.6591 0.111328 14.375 0.382928 14.375 0.714995V2.34278C14.375 2.67694 14.6613 2.94644 15.0114 2.94644Z" fill="#1B1B1B"/>
<path d="M5.93037 2.94644H6.95097C7.30327 2.94644 7.5874 2.67484 7.5874 2.34278V0.714995C7.5874 0.380834 7.30106 0.111328 6.95097 0.111328H5.93037C5.57808 0.111328 5.29395 0.382928 5.29395 0.714995V2.34278C5.29395 2.67694 5.58029 2.94644 5.93037 2.94644Z" fill="#1B1B1B"/>
<path d="M5.05594 10.5747H5.06276C5.06276 10.5747 5.08321 10.5768 5.09463 10.5768H5.10366C5.11952 10.5768 5.13315 10.5768 5.14917 10.5789H5.32881H5.37653H6.06528H6.44944H6.89957H6.95411H6.99961H7.00421C7.42008 10.5681 7.69515 10.3094 7.7042 9.91494C7.7042 9.8244 7.7088 9.73387 7.7088 9.64108C7.7134 9.38888 7.7088 9.13655 7.7042 8.88434V8.83471C7.69516 8.44237 7.42468 8.16849 7.00864 8.15994H6.99722C6.7881 8.15558 6.57676 8.15137 6.36761 8.15137H6.29261H6.27216C5.95855 8.15137 5.64718 8.15137 5.33339 8.15784C5.25839 8.15784 5.18562 8.15994 5.11063 8.1622C4.99695 8.1643 4.89246 8.18806 4.80383 8.22897C4.7152 8.26777 4.63783 8.32386 4.57885 8.395C4.57885 8.395 4.56981 8.40582 4.56522 8.41229C4.47881 8.52012 4.42886 8.65802 4.42205 8.81549C4.40619 9.18199 4.40619 9.55283 4.42205 9.91934C4.43568 10.2988 4.67668 10.5359 5.06067 10.5747L5.05594 10.5747Z" fill="#1B1B1B"/>
<path d="M16.8906 12.2558C16.2337 12.2429 15.5791 12.2429 14.9222 12.2558C14.5541 12.2623 14.2768 12.5253 14.2632 12.8767C14.2495 13.2626 14.2495 13.6485 14.2632 14.0323C14.2746 14.3967 14.5563 14.6489 14.9405 14.6575C15.2541 14.664 15.5679 14.6575 15.8837 14.6575H16.8269H16.8542C17.2405 14.6467 17.5269 14.403 17.5405 14.0388C17.5564 13.6529 17.5542 13.267 17.5405 12.8832C17.5291 12.5253 17.2654 12.2645 16.8905 12.2581L16.8906 12.2558Z" fill="#1B1B1B"/>
<path d="M10.0519 10.581H10.0701H10.0792H10.1496C10.2837 10.581 10.4178 10.5831 10.5518 10.581H10.9791H11.4064H11.8086H11.879H11.8881H11.9063C12.336 10.5724 12.6155 10.3115 12.6291 9.90396C12.6405 9.55476 12.6405 9.20332 12.6291 8.85186C12.6223 8.6556 12.5541 8.49183 12.4382 8.37108C12.3474 8.27408 12.2223 8.20716 12.0655 8.17919C12.0087 8.16836 11.9496 8.16189 11.8858 8.15979C11.7768 8.15979 11.6677 8.15768 11.5562 8.15543C11.4016 8.15543 11.2471 8.15332 11.0925 8.15332H10.9766H10.8607C10.7061 8.15332 10.5515 8.15332 10.3969 8.15543C10.2878 8.15543 10.1787 8.15543 10.0673 8.15979C10.0037 8.15979 9.94455 8.16625 9.88763 8.17919C9.73083 8.20941 9.60573 8.27408 9.51488 8.37108C9.39676 8.48959 9.32843 8.65351 9.32399 8.85186C9.31258 9.20106 9.31258 9.5525 9.32399 9.90396C9.33763 10.3136 9.61715 10.5723 10.0468 10.581H10.0519Z" fill="#1B1B1B"/>
<path d="M20.9797 12.9713V11.0719C20.9819 8.77146 20.9819 6.47129 20.9797 4.17058V3.88169C20.9797 3.84289 20.9797 3.80619 20.9775 3.76739C20.9502 2.99979 20.5707 2.33795 19.9615 1.94561C19.5615 1.66754 19.0955 1.54888 18.5932 1.55115H18.5706C18.3047 1.54032 18.0342 1.55115 17.7659 1.55115H17.5137H17.5023H17.2023V2.50627C17.2023 3.06466 16.7249 3.51749 16.1362 3.51749H14.9111C14.3224 3.51749 13.845 3.06466 13.845 2.50627V1.53613H8.12157V2.50627C8.12157 3.06466 7.64416 3.51749 7.05547 3.51749H5.83034C5.24165 3.51749 4.76424 3.06466 4.76424 2.50627V1.55115H4.46427H4.45285H4.2006C3.93234 1.54904 3.66187 1.54032 3.39598 1.55115H3.3733C2.87102 1.55115 2.40506 1.66755 2.00502 1.94561C1.39368 2.34007 1.01409 2.99983 0.98905 3.76739C0.98905 3.80408 0.98683 3.84288 0.98683 3.88169V4.17058C0.98461 6.47106 0.98683 8.77123 0.98683 11.0739V12.9711C0.98683 13.8487 0.977793 14.7283 0.98905 15.6058C1.00269 16.7937 1.78227 17.6626 3.00293 17.8673C3.12105 17.8867 3.24155 17.8888 3.36205 17.8888H10.9834H18.6047C18.7252 17.8888 18.8457 17.8888 18.9638 17.8673C20.1867 17.6625 20.964 16.7958 20.9777 15.6058C20.9891 14.7283 20.9799 13.8487 20.9799 12.9711L20.9797 12.9713ZM19.4091 15.4615C19.4091 16.1686 19.1523 16.4101 18.4068 16.4122H10.9811H3.55543C2.80994 16.4122 2.55529 16.1707 2.5531 15.4615V10.5567C2.56451 10.5567 2.57577 10.5523 2.58718 10.5502V6.60904H19.3754V10.5502C19.3754 10.5502 19.3981 10.5546 19.4095 10.5567V15.4615H19.4091Z" fill="#1B1B1B"/>
</svg>
