<svg width="24" height="25" viewBox="0 0 24 25" fill="none" xmlns="http://www.w3.org/2000/svg">
<path d="M16 3.92969V7.92969M8 3.92969V7.92969M4 11.9297H20M4 7.92969C4 7.39925 4.21071 6.89055 4.58579 6.51547C4.96086 6.1404 5.46957 5.92969 6 5.92969H18C18.5304 5.92969 19.0391 6.1404 19.4142 6.51547C19.7893 6.89055 20 7.39925 20 7.92969V19.9297C20 20.4601 19.7893 20.9688 19.4142 21.3439C19.0391 21.719 18.5304 21.9297 18 21.9297H6C5.46957 21.9297 4.96086 21.719 4.58579 21.3439C4.21071 20.9688 4 20.4601 4 19.9297V7.92969Z" stroke="#1B1B1B" stroke-linecap="round" stroke-linejoin="round"/>
<path d="M8 15.9297H10V17.9297H8V15.9297Z" stroke="#1B1B1B" stroke-linecap="round" stroke-linejoin="round"/>
</svg>
