<svg width="18" height="20" viewBox="0 0 18 20" fill="none" xmlns="http://www.w3.org/2000/svg">
<path d="M13 1.42969V5.42969M5 1.42969V5.42969M1 9.42969H17M1 5.42969C1 4.89925 1.21071 4.39055 1.58579 4.01547C1.96086 3.6404 2.46957 3.42969 3 3.42969H15C15.5304 3.42969 16.0391 3.6404 16.4142 4.01547C16.7893 4.39055 17 4.89925 17 5.42969V17.4297C17 17.9601 16.7893 18.4688 16.4142 18.8439C16.0391 19.219 15.5304 19.4297 15 19.4297H3C2.46957 19.4297 1.96086 19.219 1.58579 18.8439C1.21071 18.4688 1 17.9601 1 17.4297V5.42969Z" stroke="#1B1B1B" stroke-linecap="round" stroke-linejoin="round"/>
<path d="M5 13.4297H7V15.4297H5V13.4297Z" stroke="#1B1B1B" stroke-linecap="round" stroke-linejoin="round"/>
</svg>
