<svg width="25" height="22" viewBox="0 0 25 22" fill="none" xmlns="http://www.w3.org/2000/svg">
<path d="M20.2026 10.2238C20.2026 10.2238 20.1918 10.2108 20.1862 10.203C20.1153 10.1176 20.0253 10.0503 19.9163 10.0038C19.8072 9.95468 19.6843 9.92869 19.5481 9.92364C19.4581 9.92364 19.3708 9.92111 19.2808 9.91841C18.9071 9.91065 18.5308 9.91064 18.1543 9.91064H18.1297H18.0397C17.7888 9.91064 17.5352 9.91588 17.2842 9.92093H17.2705C16.7714 9.93393 16.4469 10.2598 16.4358 10.7307V10.7902C16.4276 11.0929 16.4276 11.3957 16.4303 11.6983C16.4303 11.8069 16.433 11.9156 16.4358 12.0269C16.4467 12.5003 16.7768 12.8109 17.2758 12.8237H17.2813H17.3359H17.4014C17.5814 12.8262 17.7613 12.8237 17.9415 12.8237H18.4025C18.678 12.8237 18.9535 12.8262 19.229 12.8237H19.2863H19.5019H19.5565H19.5673C19.5673 12.8237 19.5918 12.8237 19.6055 12.8212H19.6137C20.0774 12.7746 20.3666 12.4875 20.3801 12.0322C20.3964 11.5898 20.3964 11.1474 20.3801 10.7075C20.3719 10.5186 20.312 10.3531 20.2083 10.2237L20.2026 10.2238Z" fill="#1B1B1B"/>
<path d="M7.7648 14.834C6.97654 14.821 6.19101 14.8184 5.40274 14.834C4.95278 14.8442 4.6364 15.1548 4.62266 15.5841C4.6063 16.0472 4.60364 16.5103 4.62266 16.9708C4.64169 17.4081 4.98263 17.7005 5.44629 17.7133H5.47901H6.61085C6.98718 17.7133 7.36638 17.7185 7.74268 17.7133C8.20634 17.703 8.54463 17.4002 8.5555 16.9631C8.56919 16.5 8.57186 16.0369 8.5555 15.5764C8.53913 15.1573 8.20637 14.839 7.7646 14.8312L7.7648 14.834Z" fill="#1B1B1B"/>
<path d="M14.265 15.0876C14.1559 14.9634 14.0003 14.8831 13.8095 14.8495C13.7522 14.8393 13.6923 14.834 13.6295 14.8315C13.2532 14.8263 12.874 14.8237 12.4977 14.8237C12.1213 14.8237 11.7421 14.8263 11.3658 14.8315C11.303 14.8315 11.2431 14.8393 11.1858 14.8495C10.9948 14.8831 10.8394 14.9634 10.7304 15.0876C10.605 15.2195 10.5285 15.3929 10.5203 15.5972C10.4984 16.0473 10.4984 16.5028 10.5203 16.9529C10.5422 17.4212 10.8885 17.7135 11.3932 17.7186H11.4069H11.4478C11.7698 17.7211 12.0943 17.7186 12.4161 17.7186H12.4979H12.5797H13.5479H13.5888H13.6025C14.1071 17.7133 14.4536 17.421 14.4754 16.9529C14.4973 16.5028 14.4973 16.0473 14.4754 15.5972C14.4646 15.3927 14.3881 15.2195 14.2654 15.0876H14.265Z" fill="#1B1B1B"/>
<path d="M17.3331 3.66532H18.5578C18.9805 3.66532 19.3215 3.3394 19.3215 2.94092V0.987584C19.3215 0.58659 18.9779 0.263184 18.5578 0.263184H17.3331C16.9103 0.263184 16.5693 0.589104 16.5693 0.987584V2.94092C16.5693 3.34192 16.9129 3.66532 17.3331 3.66532Z" fill="#1B1B1B"/>
<path d="M6.43657 3.66532H7.66129C8.08404 3.66532 8.425 3.3394 8.425 2.94092V0.987584C8.425 0.58659 8.08139 0.263184 7.66129 0.263184H6.43657C6.01381 0.263184 5.67285 0.589104 5.67285 0.987584V2.94092C5.67285 3.34192 6.01646 3.66532 6.43657 3.66532Z" fill="#1B1B1B"/>
<path d="M5.38627 12.8186H5.39445C5.39445 12.8186 5.41899 12.8212 5.43269 12.8212H5.44354C5.46256 12.8212 5.47893 12.8212 5.49814 12.8237H5.71371H5.77098H6.59747H7.05847H7.59862H7.66407H7.71868H7.72419C8.22324 12.8107 8.55332 12.5003 8.56418 12.0269C8.56418 11.9183 8.5697 11.8097 8.5697 11.6983C8.57522 11.3957 8.5697 11.0929 8.56418 10.7902V10.7307C8.55334 10.2598 8.22876 9.93119 7.7295 9.92093H7.7158C7.46485 9.9157 7.21126 9.91064 6.96027 9.91064H6.87028H6.84573C6.4694 9.91064 6.09575 9.91065 5.71921 9.91841C5.62921 9.91841 5.54189 9.92093 5.45189 9.92364C5.31548 9.92616 5.1901 9.95468 5.08374 10.0038C4.97739 10.0503 4.88454 10.1176 4.81376 10.203C4.81376 10.203 4.80292 10.216 4.7974 10.2238C4.69371 10.3531 4.63378 10.5186 4.6256 10.7076C4.60657 11.1474 4.60657 11.5924 4.6256 12.0322C4.64196 12.4875 4.93115 12.7721 5.39194 12.8187L5.38627 12.8186Z" fill="#1B1B1B"/>
<path d="M19.5891 14.8368C18.8008 14.8213 18.0153 14.8213 17.227 14.8368C16.7852 14.8446 16.4525 15.1602 16.4361 15.582C16.4197 16.045 16.4197 16.5081 16.4361 16.9687C16.4498 17.406 16.7879 17.7086 17.2489 17.7189C17.6252 17.7266 18.0018 17.7189 18.3807 17.7189H19.5126H19.5453C20.009 17.7059 20.3526 17.4135 20.3689 16.9764C20.388 16.5134 20.3853 16.0503 20.3689 15.5897C20.3552 15.1602 20.0388 14.8473 19.5889 14.8396L19.5891 14.8368Z" fill="#1B1B1B"/>
<path d="M11.3818 12.8268H11.4037H11.4146H11.499C11.66 12.8268 11.821 12.8293 11.9817 12.8268H12.4945H13.0072H13.4899H13.5743H13.5852H13.6071C14.1227 12.8165 14.4581 12.5034 14.4745 12.0143C14.4882 11.5953 14.4882 11.1736 14.4745 10.7518C14.4663 10.5163 14.3845 10.3198 14.2454 10.1749C14.1364 10.0585 13.9863 9.97818 13.7981 9.94461C13.73 9.93162 13.659 9.92386 13.5825 9.92133C13.4516 9.92133 13.3208 9.91881 13.187 9.9161C13.0015 9.9161 12.816 9.91357 12.6305 9.91357H12.4914H12.3523C12.1668 9.91357 11.9813 9.91357 11.7958 9.9161C11.6649 9.9161 11.534 9.9161 11.4003 9.92133C11.324 9.92133 11.253 9.92909 11.1847 9.94461C10.9965 9.98089 10.8464 10.0585 10.7374 10.1749C10.5956 10.3171 10.5136 10.5138 10.5083 10.7518C10.4946 11.1709 10.4946 11.5926 10.5083 12.0143C10.5247 12.5059 10.8601 12.8163 11.3757 12.8268H11.3818Z" fill="#1B1B1B"/>
<path d="M24.4956 15.6954V13.4161C24.4982 10.6555 24.4982 7.89533 24.4956 5.13448V4.78781C24.4956 4.74125 24.4956 4.69722 24.4929 4.65065C24.4602 3.72954 24.0047 2.93533 23.2737 2.46452C22.7937 2.13084 22.2345 1.98844 21.6318 1.99116H21.6046C21.2855 1.97817 20.9609 1.99116 20.639 1.99116H20.3363H20.3226H19.9627V3.13731C19.9627 3.80738 19.3898 4.35078 18.6833 4.35078H17.2132C16.5068 4.35078 15.9339 3.80738 15.9339 3.13731V1.97314H9.0658V3.13731C9.0658 3.80738 8.49292 4.35078 7.78648 4.35078H6.31633C5.6099 4.35078 5.03701 3.80738 5.03701 3.13731V1.99116H4.67704H4.66335H4.36065C4.03873 1.98864 3.71417 1.97817 3.39509 1.99116H3.36789C2.76515 1.99116 2.206 2.13084 1.72595 2.46452C0.992335 2.93787 0.536833 3.72958 0.506782 4.65065C0.506782 4.69469 0.504118 4.74124 0.504118 4.78781V5.13448C0.501454 7.89506 0.504118 10.6553 0.504118 13.4184V15.6952C0.504118 16.7482 0.493273 17.8037 0.506782 18.8567C0.523144 20.2822 1.45865 21.325 2.92344 21.5706C3.06519 21.5938 3.20978 21.5964 3.35438 21.5964H12.5H21.6455C21.7901 21.5964 21.9347 21.5964 22.0765 21.5706C23.5439 21.3248 24.4768 20.2847 24.4931 18.8567C24.5068 17.8037 24.4958 16.7482 24.4958 15.6952L24.4956 15.6954ZM22.6109 18.6835C22.6109 19.5321 22.3027 19.8219 21.4081 19.8244H12.4973H3.58644C2.69185 19.8244 2.38627 19.5346 2.38364 18.6835V12.7978C2.39734 12.7978 2.41084 12.7926 2.42454 12.79V8.06063H22.5704V12.79C22.5704 12.79 22.5976 12.7953 22.6113 12.7978V18.6835H22.6109Z" fill="#1B1B1B"/>
</svg>
