<svg width="21" height="19" viewBox="0 0 21 19" fill="none" xmlns="http://www.w3.org/2000/svg">
<path d="M7.83063 10.7349L19.6791 0.628522M7.83063 10.7349L10.7587 17.9855C10.7948 18.0843 10.8585 18.1707 10.9423 18.2343C11.0261 18.2979 11.1265 18.3361 11.2314 18.3443C11.3364 18.3525 11.4417 18.3304 11.5346 18.2806C11.6275 18.2309 11.7042 18.1555 11.7557 18.0635L19.6791 0.628522M7.83063 10.7349L1.1326 6.7001C1.04067 6.6489 0.965432 6.57236 0.915831 6.47957C0.866231 6.38679 0.844353 6.28166 0.852797 6.17668C0.861242 6.0717 0.899653 5.97129 0.963467 5.88738C1.02728 5.80347 1.11381 5.73959 1.21278 5.70332L19.6791 0.628522" stroke="#949494" stroke-linecap="round" stroke-linejoin="round"/>
</svg>
