<svg width="22" height="20" viewBox="0 0 22 20" fill="none" xmlns="http://www.w3.org/2000/svg">
<path d="M3.42951 0.928499L3.42951 0.928499C3.47942 0.923215 3.73803 0.91906 4.14974 0.915398C4.56599 0.911696 5.14714 0.90853 5.85067 0.906048C7.25777 0.901084 9.15491 0.898857 11.2025 0.900573C11.862 0.901128 12.4649 0.901454 13.0161 0.901752C15.9568 0.903343 17.4301 0.90414 18.2246 0.934558C18.6953 0.952576 18.9375 0.981136 19.1084 1.02996C19.2269 1.06381 19.3139 1.10945 19.4115 1.16059C19.4529 1.18228 19.4962 1.20495 19.5445 1.22814L19.5013 1.31831L19.5445 1.22814C20.2266 1.55524 20.7814 2.23192 21.0029 2.99959L20.9079 3.02701L21.0029 2.99959C21.0434 3.14003 21.0622 3.28638 21.0722 3.94684C21.0823 4.61087 21.0834 5.80535 21.0834 8.05197C21.0834 10.2986 21.0823 11.4931 21.0722 12.1571C21.0622 12.8176 21.0434 12.9639 21.0029 13.1043C20.7253 14.0667 19.9803 14.8075 19.0148 15.0813L18.6863 15.1745L18.6729 15.1783H18.659H14.1023H9.57575L9.43866 15.2692L9.43864 15.2692C9.3501 15.3279 8.05473 16.2096 6.55898 17.2293C5.81126 17.7391 5.12638 18.2026 4.62527 18.5387C4.37475 18.7067 4.16995 18.843 4.02613 18.9374C3.95429 18.9845 3.89726 19.0215 3.85722 19.0467C3.83732 19.0593 3.82089 19.0694 3.80865 19.0766C3.8027 19.0801 3.79658 19.0836 3.79102 19.0865C3.7884 19.0878 3.78434 19.0898 3.77968 19.0918C3.77739 19.0927 3.77351 19.0943 3.76869 19.0957C3.76554 19.0966 3.75419 19.1 3.73935 19.1C3.69539 19.1 3.66884 19.0736 3.65894 19.0614C3.6485 19.0486 3.64307 19.0359 3.64054 19.0294C3.6351 19.0155 3.632 19.0008 3.63 18.9896C3.62569 18.9655 3.6223 18.9329 3.61941 18.8937C3.61355 18.8143 3.60888 18.6955 3.60523 18.5358C3.59792 18.2156 3.59456 17.7244 3.59456 17.0392V15.178L3.51695 15.1777C3.22062 15.1767 2.7923 15.0606 2.44164 14.892L2.44163 14.892C2.19326 14.7726 2.01851 14.6413 1.74531 14.3748C1.32497 13.9647 1.10528 13.5993 0.968895 13.077L0.968894 13.077C0.925836 12.9121 0.905357 12.7837 0.894726 12.1376C0.884083 11.4908 0.883398 10.3159 0.883398 8.05197C0.883398 5.80532 0.884208 4.62991 0.894694 3.97937C0.905159 3.33012 0.925145 3.19444 0.967143 3.03366L3.42951 0.928499ZM3.42951 0.928499C2.23087 1.05546 1.26922 1.87685 0.967145 3.03365L3.42951 0.928499ZM19.7155 3.43519L19.6257 3.21729C19.4521 2.79607 19.1462 2.498 18.7381 2.34847L18.5225 2.26945L10.9819 2.27348C10.4735 2.27375 9.9985 2.27394 9.55458 2.27412C6.37994 2.27537 4.79524 2.27599 3.96755 2.30213C3.49325 2.31711 3.27804 2.3404 3.15672 2.37327C3.07378 2.39574 3.04086 2.41929 2.98388 2.46004C2.96254 2.47531 2.93782 2.49299 2.90583 2.51394L2.90582 2.51394C2.66151 2.67386 2.51873 2.84115 2.37404 3.14348L2.37404 3.14348L2.27214 3.35639V8.05197V12.7471L2.39171 12.9919L2.30186 13.0358L2.39171 12.9919C2.56853 13.3538 2.85622 13.6177 3.2298 13.7608C3.2298 13.7608 3.22981 13.7608 3.22982 13.7608L19.7155 3.43519ZM19.7155 3.43519V8.05197V12.6687L19.6257 12.8866C19.4521 13.3079 19.1462 13.6059 18.7381 13.7555L18.7346 13.7568C18.6395 13.7917 18.5813 13.813 17.9673 13.8236C17.348 13.8343 16.1762 13.8345 13.8501 13.8345H9.15992H9.12907L9.10359 13.8519L6.98613 15.2953L7.04246 15.378L6.98613 15.2953L5.02229 16.6341L19.7155 3.43519Z" fill="#444444" stroke="#444444" stroke-width="0.2"/>
</svg>
