<svg width="52" height="52" viewBox="0 0 52 52" fill="none" xmlns="http://www.w3.org/2000/svg">
<rect width="52" height="52" rx="26" fill="#72C140"/>
<path d="M21.3363 31.1224L35.0942 16.6735C35.5217 16.2245 36.0658 16 36.7265 16C37.3871 16 37.9312 16.2245 38.3587 16.6735C38.7862 17.1224 39 17.6939 39 18.3878C39 19.0816 38.7862 19.6531 38.3587 20.102L22.9686 36.2653C22.5022 36.7551 21.9581 37 21.3363 37C20.7145 37 20.1704 36.7551 19.704 36.2653L13.6413 29.898C13.2138 29.449 13 28.8776 13 28.1837C13 27.4898 13.2138 26.9184 13.6413 26.4694C14.0688 26.0204 14.6129 25.7959 15.2735 25.7959C15.9342 25.7959 16.4783 26.0204 16.9058 26.4694L21.3363 31.1224Z" fill="white"/>
</svg>
