<svg width="18" height="19" viewBox="0 0 18 19" fill="none" xmlns="http://www.w3.org/2000/svg">
<path d="M13.027 11.7639H13.3897L13.4069 11.7113C13.9841 11.546 14.3698 11.0115 14.3999 10.4159L14.4005 10.4033V10.3906C14.4005 9.65354 13.7885 9.0415 13.0514 9.0415H9.93679V5.32044C9.93679 4.58333 9.32475 3.97129 8.58764 3.97129C7.85054 3.97129 7.2385 4.58334 7.2385 5.32044V10.4148C7.2385 11.1519 7.85054 11.7639 8.58764 11.7639H13.027ZM0.5 9.92969C0.5 5.25616 4.30397 1.42969 9 1.42969C13.696 1.42969 17.5 5.25629 17.5 9.92969C17.5 14.6031 13.696 18.4297 9 18.4297C4.30314 18.4297 0.5 14.6266 0.5 9.92969Z" stroke="#1B1B1B"/>
</svg>
