<svg width="17" height="18" viewBox="0 0 17 18" fill="none" xmlns="http://www.w3.org/2000/svg">
<path d="M4.5 6.92285C4.5 6.39242 4.71071 5.88371 5.08579 5.50864C5.46086 5.13357 5.96957 4.92285 6.5 4.92285H14.5C15.0304 4.92285 15.5391 5.13357 15.9142 5.50864C16.2893 5.88371 16.5 6.39242 16.5 6.92285V14.9229C16.5 15.4533 16.2893 15.962 15.9142 16.3371C15.5391 16.7121 15.0304 16.9229 14.5 16.9229H6.5C5.96957 16.9229 5.46086 16.7121 5.08579 16.3371C4.71071 15.962 4.5 15.4533 4.5 14.9229V6.92285Z" stroke="white" stroke-linecap="round" stroke-linejoin="round"/>
<path d="M12.5 4.92285V2.92285C12.5 2.39242 12.2893 1.88371 11.9142 1.50864C11.5391 1.13357 11.0304 0.922852 10.5 0.922852H2.5C1.96957 0.922852 1.46086 1.13357 1.08579 1.50864C0.710714 1.88371 0.5 2.39242 0.5 2.92285V10.9229C0.5 11.4533 0.710714 11.962 1.08579 12.3371C1.46086 12.7121 1.96957 12.9229 2.5 12.9229H4.5" stroke="white" stroke-linecap="round" stroke-linejoin="round"/>
</svg>
