<svg width="18" height="18" viewBox="0 0 18 18" fill="none" xmlns="http://www.w3.org/2000/svg">
<path d="M4.9834 7C4.9834 6.46957 5.19411 5.96086 5.56919 5.58579C5.94426 5.21071 6.45297 5 6.9834 5H14.9834C15.5138 5 16.0225 5.21071 16.3976 5.58579C16.7727 5.96086 16.9834 6.46957 16.9834 7V15C16.9834 15.5304 16.7727 16.0391 16.3976 16.4142C16.0225 16.7893 15.5138 17 14.9834 17H6.9834C6.45297 17 5.94426 16.7893 5.56919 16.4142C5.19411 16.0391 4.9834 15.5304 4.9834 15V7Z" stroke="#1B1B1B" stroke-linecap="round" stroke-linejoin="round"/>
<path d="M12.9834 5V3C12.9834 2.46957 12.7727 1.96086 12.3976 1.58579C12.0225 1.21071 11.5138 1 10.9834 1H2.9834C2.45297 1 1.94426 1.21071 1.56918 1.58579C1.19411 1.96086 0.983398 2.46957 0.983398 3V11C0.983398 11.5304 1.19411 12.0391 1.56918 12.4142C1.94426 12.7893 2.45297 13 2.9834 13H4.9834" stroke="#1B1B1B" stroke-linecap="round" stroke-linejoin="round"/>
</svg>
