<svg width="15" height="20" viewBox="0 0 15 20" fill="none" xmlns="http://www.w3.org/2000/svg">
<g clip-path="url(#clip0_9939_43942)">
<path d="M12.6834 6.44444C12.4844 5.94243 12.1208 5.50486 11.6397 5.18803C11.1585 4.87121 10.5817 4.68963 9.9834 4.66667H5.9834C5.18775 4.66667 4.42469 4.94762 3.86208 5.44772C3.29947 5.94781 2.9834 6.62609 2.9834 7.33333C2.9834 8.04058 3.29947 8.71885 3.86208 9.21895C4.42469 9.71905 5.18775 10 5.9834 10H9.9834C10.779 10 11.5421 10.281 12.1047 10.781C12.6673 11.2811 12.9834 11.9594 12.9834 12.6667C12.9834 13.3739 12.6673 14.0522 12.1047 14.5523C11.5421 15.0524 10.779 15.3333 9.9834 15.3333H5.9834C5.38514 15.3104 4.80831 15.1288 4.32713 14.812C3.84595 14.4951 3.48245 14.0576 3.2834 13.5556M7.9834 2V4.66667M7.9834 15.3333V18" stroke="#1B1B1B" stroke-width="3" stroke-linecap="round" stroke-linejoin="round"/>
</g>
<defs>
<clipPath id="clip0_9939_43942">
<rect width="14" height="20" fill="white" transform="translate(0.983398)"/>
</clipPath>
</defs>
</svg>
