<svg width="21" height="20" viewBox="0 0 21 20" fill="none" xmlns="http://www.w3.org/2000/svg">
<path d="M8.58301 15.833V10.833C8.58301 10.612 8.49521 10.4 8.33893 10.2438C8.18265 10.0875 7.97069 9.99967 7.74967 9.99967H4.41634C4.19533 9.99967 3.98337 10.0875 3.82709 10.2438C3.67081 10.4 3.58301 10.612 3.58301 10.833V15.833C3.58301 16.054 3.67081 16.266 3.82709 16.4223C3.98337 16.5785 4.19533 16.6663 4.41634 16.6663M8.58301 15.833C8.58301 16.054 8.49521 16.266 8.33893 16.4223C8.18265 16.5785 7.97069 16.6663 7.74967 16.6663H4.41634M8.58301 15.833C8.58301 16.054 8.67081 16.266 8.82709 16.4223C8.98337 16.5785 9.19533 16.6663 9.41634 16.6663H12.7497C12.9707 16.6663 13.1826 16.5785 13.3389 16.4223C13.4952 16.266 13.583 16.054 13.583 15.833M8.58301 15.833V7.49967C8.58301 7.27866 8.67081 7.0667 8.82709 6.91042C8.98337 6.75414 9.19533 6.66634 9.41634 6.66634H12.7497C12.9707 6.66634 13.1826 6.75414 13.3389 6.91042C13.4952 7.0667 13.583 7.27866 13.583 7.49967V15.833M4.41634 16.6663H16.083M13.583 15.833C13.583 16.054 13.6708 16.266 13.8271 16.4223C13.9834 16.5785 14.1953 16.6663 14.4163 16.6663H17.7497C17.9707 16.6663 18.1827 16.5785 18.3389 16.4223C18.4952 16.266 18.583 16.054 18.583 15.833V4.16634C18.583 3.94533 18.4952 3.73337 18.3389 3.57709C18.1827 3.42081 17.9707 3.33301 17.7497 3.33301H14.4163C14.1953 3.33301 13.9834 3.42081 13.8271 3.57709C13.6708 3.73337 13.583 3.94533 13.583 4.16634V15.833Z" stroke="#1B1B1B" stroke-width="2" stroke-linecap="round" stroke-linejoin="round"/>
</svg>
