<svg width="20" height="18" viewBox="0 0 20 18" fill="none" xmlns="http://www.w3.org/2000/svg">
<path d="M7 15.9297V9.92969C7 9.66447 6.89464 9.41012 6.70711 9.22258C6.51957 9.03504 6.26522 8.92969 6 8.92969H2C1.73478 8.92969 1.48043 9.03504 1.29289 9.22258C1.10536 9.41012 1 9.66447 1 9.92969V15.9297C1 16.1949 1.10536 16.4493 1.29289 16.6368C1.48043 16.8243 1.73478 16.9297 2 16.9297M7 15.9297C7 16.1949 6.89464 16.4493 6.70711 16.6368C6.51957 16.8243 6.26522 16.9297 6 16.9297H2M7 15.9297C7 16.1949 7.10536 16.4493 7.29289 16.6368C7.48043 16.8243 7.73478 16.9297 8 16.9297H12C12.2652 16.9297 12.5196 16.8243 12.7071 16.6368C12.8946 16.4493 13 16.1949 13 15.9297M7 15.9297V5.92969C7 5.66447 7.10536 5.41012 7.29289 5.22258C7.48043 5.03504 7.73478 4.92969 8 4.92969H12C12.2652 4.92969 12.5196 5.03504 12.7071 5.22258C12.8946 5.41012 13 5.66447 13 5.92969V15.9297M2 16.9297H16M13 15.9297C13 16.1949 13.1054 16.4493 13.2929 16.6368C13.4804 16.8243 13.7348 16.9297 14 16.9297H18C18.2652 16.9297 18.5196 16.8243 18.7071 16.6368C18.8946 16.4493 19 16.1949 19 15.9297V1.92969C19 1.66447 18.8946 1.41012 18.7071 1.22258C18.5196 1.03504 18.2652 0.929688 18 0.929688H14C13.7348 0.929687 13.4804 1.03504 13.2929 1.22258C13.1054 1.41012 13 1.66447 13 1.92969V15.9297Z" stroke="#1B1B1B" stroke-linecap="round" stroke-linejoin="round"/>
</svg>
