<svg width="20" height="20" viewBox="0 0 20 20" fill="none" xmlns="http://www.w3.org/2000/svg">
<path d="M4.41048 5.00005C3.19791 6.35462 2.51909 8.1038 2.50048 9.92172C2.45381 14.0767 5.84548 17.4926 10.0005 17.5001C14.1488 17.5084 17.5005 14.1476 17.5005 10.0001C17.5005 5.91672 14.2363 2.59338 10.1755 2.50005C10.1527 2.49949 10.13 2.5035 10.1088 2.51184C10.0876 2.52018 10.0683 2.53267 10.052 2.54859C10.0357 2.56451 10.0227 2.58353 10.0139 2.60453C10.005 2.62553 10.0005 2.64809 10.0005 2.67088V5.93755" stroke="#949494" stroke-width="1.25" stroke-linecap="round" stroke-linejoin="round"/>
<path d="M9.11667 10.8808L6.03083 6.46664C5.98863 6.40551 5.96919 6.33151 5.97591 6.25753C5.98263 6.18355 6.01508 6.11427 6.0676 6.06174C6.12013 6.00922 6.18941 5.97677 6.26339 5.97005C6.33737 5.96333 6.41137 5.98277 6.4725 6.02497L10.8867 9.11081C11.1625 9.30375 11.3504 9.59836 11.409 9.92983C11.4676 10.2613 11.3921 10.6025 11.1992 10.8783C11.0062 11.1541 10.7116 11.342 10.3801 11.4006C10.0487 11.4592 9.70749 11.3838 9.43167 11.1908C9.30971 11.1062 9.20316 11.0014 9.11667 10.8808Z" fill="#949494"/>
</svg>
