<svg width="17" height="15" viewBox="0 0 17 15" fill="none" xmlns="http://www.w3.org/2000/svg">
<path fill-rule="evenodd" clip-rule="evenodd" d="M1.17934 0.846011C1.14099 0.855352 1.08124 0.908157 1.04652 0.963384C0.983773 1.06317 0.983398 1.10175 0.983398 7.50537V13.947L1.0588 14.0567L1.13424 14.1663H8.9834H16.8326L16.908 14.0567L16.9834 13.947V7.50229V1.05758L16.908 0.947907L16.8326 0.838233L9.0408 0.833621C4.7553 0.831081 1.21765 0.83667 1.17934 0.846011ZM8.70215 2.99821V4.51331L8.42868 4.595C7.56909 4.85183 6.91399 5.65097 6.66515 6.74634C6.56743 7.17643 6.56743 7.82814 6.66515 8.25824C6.91399 9.3536 7.56909 10.1527 8.42868 10.4096L8.70215 10.4913V12.0064V13.5214H5.1084H1.51465V12.2316V10.9418H2.76605H4.01749L4.09418 10.8458L4.1709 10.7499V7.50229V4.25465L4.09418 4.15873L4.01749 4.06278H2.76605H1.51465V2.77296V1.48314H5.1084H8.70215V2.99821ZM16.4521 2.77296V4.06278H15.2007H13.9493L13.8726 4.15873L13.7959 4.25465V7.50229V10.7499L13.8726 10.8458L13.9493 10.9418H15.2007H16.4521V12.2316V13.5214H12.8584H9.26465V12.0064V10.4913L9.53812 10.4096C10.3977 10.1527 11.0528 9.3536 11.3016 8.25824C11.3994 7.82814 11.3994 7.17643 11.3016 6.74634C11.0528 5.65097 10.3977 4.85183 9.53812 4.595L9.26465 4.51331V2.99821V1.48314H12.8584H16.4521V2.77296ZM3.63965 7.50229V10.2773H2.57715H1.51465V7.50229V4.72723H2.57715H3.63965V7.50229ZM16.4521 7.50229V10.2773H15.3896H14.3271V7.50229V4.72723H15.3896H16.4521V7.50229ZM8.70215 7.50303V9.80981L8.61621 9.78425C7.90287 9.57213 7.39315 8.9751 7.18512 8.10811C7.10937 7.79246 7.10937 7.21212 7.18512 6.89646C7.34724 6.22083 7.71293 5.6811 8.19899 5.4C8.34137 5.31769 8.5934 5.21247 8.67871 5.19973C8.69159 5.19781 8.70215 6.23432 8.70215 7.50303ZM9.57715 5.30377C10.1517 5.54036 10.5978 6.13031 10.7817 6.89646C10.8574 7.21212 10.8574 7.79246 10.7817 8.10811C10.6607 8.61212 10.4312 9.0394 10.1286 9.32394C9.86562 9.57119 9.66206 9.69161 9.35059 9.78425L9.26465 9.80981V7.50229V5.19477L9.35059 5.22033C9.39784 5.23436 9.4998 5.27192 9.57715 5.30377Z" fill="#1B1B1B"/>
</svg>
