<svg width="15" height="21" viewBox="0 0 15 21" fill="none" xmlns="http://www.w3.org/2000/svg">
<path d="M14.4996 0.554688H10.7496C10.6502 0.554688 10.5548 0.594196 10.4845 0.664523C10.4141 0.734849 10.3746 0.830231 10.3746 0.929688C10.3746 1.02914 10.4141 1.12453 10.4845 1.19485C10.5548 1.26518 10.6502 1.30469 10.7496 1.30469H13.594L10.3325 4.56625C9.70342 3.89994 8.92113 3.39738 8.05362 3.1023C7.18611 2.80721 6.25964 2.72853 5.35479 2.87309C4.44994 3.01764 3.5941 3.38107 2.86171 3.93176C2.12932 4.48245 1.54255 5.20372 1.15243 6.03285C0.762317 6.86199 0.580664 7.77387 0.623273 8.68921C0.665882 9.60454 0.931462 10.4956 1.39692 11.2849C1.86237 12.0742 2.51361 12.7379 3.29399 13.2181C4.07437 13.6984 4.96027 13.9808 5.87464 14.0406V16.3047H3.24964C3.15018 16.3047 3.0548 16.3442 2.98447 16.4145C2.91415 16.4848 2.87464 16.5802 2.87464 16.6797C2.87464 16.7791 2.91415 16.8745 2.98447 16.9449C3.0548 17.0152 3.15018 17.0547 3.24964 17.0547H5.87464V19.6797C5.87464 19.7791 5.91415 19.8745 5.98447 19.9449C6.0548 20.0152 6.15018 20.0547 6.24964 20.0547C6.34909 20.0547 6.44448 20.0152 6.5148 19.9449C6.58513 19.8745 6.62464 19.7791 6.62464 19.6797V17.0547H9.24964C9.34909 17.0547 9.44448 17.0152 9.5148 16.9449C9.58513 16.8745 9.62464 16.7791 9.62464 16.6797C9.62464 16.5802 9.58513 16.4848 9.5148 16.4145C9.44448 16.3442 9.34909 16.3047 9.24964 16.3047H6.62464V14.0406C7.62545 13.9745 8.59033 13.6417 9.41912 13.0768C10.2479 12.5119 10.9104 11.7355 11.3378 10.8281C11.7652 9.92078 11.942 8.91555 11.8498 7.91681C11.7576 6.91806 11.3997 5.9622 10.8134 5.14844L14.1246 1.83531V4.67969C14.1246 4.77914 14.1641 4.87453 14.2345 4.94485C14.3048 5.01518 14.4002 5.05469 14.4996 5.05469C14.5991 5.05469 14.6945 5.01518 14.7648 4.94485C14.8351 4.87453 14.8746 4.77914 14.8746 4.67969V0.929688C14.8746 0.830231 14.8351 0.734849 14.7648 0.664523C14.6945 0.594196 14.5991 0.554688 14.4996 0.554688ZM6.24964 13.3047C5.28545 13.3047 4.34292 13.0188 3.54123 12.4831C2.73954 11.9474 2.1147 11.1861 1.74573 10.2953C1.37675 9.40448 1.28021 8.42428 1.46831 7.47862C1.65641 6.53296 2.12071 5.66432 2.80249 4.98254C3.48427 4.30076 4.35292 3.83646 5.29857 3.64836C6.24423 3.46026 7.22443 3.5568 8.11522 3.92577C9.00601 4.29475 9.76738 4.91959 10.3031 5.72128C10.8387 6.52297 11.1246 7.4655 11.1246 8.42969C11.1231 9.72216 10.6091 10.9613 9.69514 11.8752C8.78122 12.7891 7.54211 13.3032 6.24964 13.3047Z" fill="black"/>
</svg>
