<svg width="16" height="20" viewBox="0 0 16 20" fill="none" xmlns="http://www.w3.org/2000/svg">
<path d="M14.416 0H10.8446C10.5604 0 10.2879 0.112882 10.087 0.313814C9.88605 0.514746 9.77317 0.787268 9.77317 1.07143C9.77317 1.35559 9.88605 1.62811 10.087 1.82904C10.2879 2.02997 10.5604 2.14286 10.8446 2.14286H11.8267L10.4303 3.54196C9.71527 2.94777 8.87331 2.52573 7.96937 2.30837C7.06543 2.09102 6.12365 2.08416 5.21664 2.28833C4.30963 2.49249 3.46162 2.90223 2.738 3.48595C2.01438 4.06966 1.43447 4.81176 1.043 5.65503C0.651523 6.4983 0.458937 7.42021 0.480087 8.34967C0.501238 9.27914 0.73556 10.1913 1.16499 11.0159C1.59442 11.8405 2.20748 12.5555 2.9569 13.1057C3.70633 13.6559 4.57209 14.0266 5.48745 14.1893V15H3.70174C3.41758 15 3.14506 15.1129 2.94412 15.3138C2.74319 15.5147 2.63031 15.7873 2.63031 16.0714C2.63031 16.3556 2.74319 16.6281 2.94412 16.829C3.14506 17.03 3.41758 17.1429 3.70174 17.1429H5.48745V18.9286C5.48745 19.2127 5.60034 19.4853 5.80127 19.6862C6.0022 19.8871 6.27472 20 6.55888 20C6.84304 20 7.11556 19.8871 7.3165 19.6862C7.51743 19.4853 7.63031 19.2127 7.63031 18.9286V17.1429H9.41602C9.70018 17.1429 9.97271 17.03 10.1736 16.829C10.3746 16.6281 10.4875 16.3556 10.4875 16.0714C10.4875 15.7873 10.3746 15.5147 10.1736 15.3138C9.97271 15.1129 9.70018 15 9.41602 15H7.63031V14.1893C8.5892 14.0182 9.4928 13.6188 10.2647 13.0247C11.0365 12.4306 11.654 11.6593 12.0647 10.7761C12.4755 9.89294 12.6675 8.92382 12.6245 7.95074C12.5815 6.97766 12.3048 6.02924 11.8178 5.18571L13.3446 3.66071V4.64286C13.3446 4.92702 13.4575 5.19954 13.6584 5.40047C13.8593 5.6014 14.1319 5.71429 14.416 5.71429C14.7002 5.71429 14.9727 5.6014 15.1736 5.40047C15.3746 5.19954 15.4875 4.92702 15.4875 4.64286V1.07143C15.4875 0.787268 15.3746 0.514746 15.1736 0.313814C14.9727 0.112882 14.7002 0 14.416 0ZM6.55888 12.1429C5.78188 12.1429 5.02233 11.9124 4.37628 11.4808C3.73023 11.0491 3.2267 10.4355 2.92936 9.71769C2.63201 8.99983 2.55421 8.20993 2.7058 7.44786C2.85738 6.68579 3.23154 5.98579 3.78096 5.43637C4.33038 4.88695 5.03039 4.51279 5.79246 4.3612C6.55452 4.20962 7.34443 4.28742 8.06228 4.58476C8.78013 4.8821 9.39369 5.38564 9.82537 6.03169C10.257 6.67774 10.4875 7.43729 10.4875 8.21429C10.4863 9.25585 10.072 10.2544 9.3355 10.9909C8.599 11.7274 7.60044 12.1417 6.55888 12.1429Z" fill="#1B1B1B"/>
</svg>
