<svg width="20" height="20" viewBox="0 0 20 20" fill="none" xmlns="http://www.w3.org/2000/svg">
<path d="M3.33398 14.1663V5.83301L9.16732 14.1663V5.83301M12.5007 14.1663H16.6673M12.5007 8.33301C12.5007 8.99605 12.7201 9.63193 13.1108 10.1008C13.5015 10.5696 14.0314 10.833 14.584 10.833C15.1365 10.833 15.6664 10.5696 16.0571 10.1008C16.4478 9.63193 16.6673 8.99605 16.6673 8.33301C16.6673 7.66997 16.4478 7.03408 16.0571 6.56524C15.6664 6.0964 15.1365 5.83301 14.584 5.83301C14.0314 5.83301 13.5015 6.0964 13.1108 6.56524C12.7201 7.03408 12.5007 7.66997 12.5007 8.33301Z" stroke="#949494" stroke-width="2" stroke-linecap="round" stroke-linejoin="round"/>
</svg>
