<svg width="12" height="13" viewBox="0 0 12 13" fill="none" xmlns="http://www.w3.org/2000/svg">
<path d="M3.80745 1.34137C4.4983 1.04739 5.2185 0.900391 5.98281 0.900391C6.74713 0.900391 7.46732 1.04738 8.15817 1.34137C8.84903 1.63535 9.45158 2.03222 9.95133 2.53188C10.4511 3.03163 10.848 3.63427 11.1418 4.32503C11.4358 5.01588 11.5828 5.73607 11.5828 6.50039C11.5828 7.26471 11.4358 7.9849 11.1418 8.67575C10.8479 9.3666 10.451 9.96916 9.95133 10.4689C9.45158 10.9687 8.84893 11.3655 8.15817 11.6594C7.46732 11.9534 6.74713 12.1004 5.98281 12.1004C5.2185 12.1004 4.4983 11.9534 3.80745 11.6594C3.1166 11.3654 2.51405 10.9686 2.0143 10.4689C1.51455 9.96916 1.11767 9.36651 0.82379 8.67575C0.529813 7.9849 0.382812 7.26471 0.382812 6.50039C0.382812 5.73607 0.529806 5.01588 0.82379 4.32503C1.11777 3.63418 1.51464 3.03163 2.0143 2.53188C2.51405 2.03213 3.11669 1.63525 3.80745 1.34137ZM9.84834 9.33722C10.4657 8.4847 10.7743 7.54406 10.7743 6.50044V6.48577L10.4215 6.79441C10.2599 6.94141 10.01 6.92673 9.86298 6.77974L8.80469 5.79498C8.7018 5.6921 8.65769 5.54511 8.67237 5.39811L8.95158 3.98706C8.99569 3.78129 9.18678 3.63429 9.40723 3.64898L9.86287 3.69309C9.23089 2.84057 8.42247 2.25269 7.42294 1.92928L7.59928 2.35549C7.68749 2.56126 7.59928 2.7817 7.42294 2.88458L6.15888 3.57543C6.02656 3.64888 5.87966 3.64888 5.74733 3.57543L4.48327 2.88458C4.29217 2.78169 4.21872 2.5465 4.30693 2.35549L4.48327 1.92928C3.48377 2.25262 2.67535 2.84057 2.04334 3.69309L2.51365 3.64898C2.7341 3.63431 2.9252 3.78131 2.9693 3.98706L3.24852 5.39811C3.27795 5.5451 3.23384 5.69209 3.11619 5.78031L2.0579 6.76507C1.89623 6.91207 1.66102 6.91207 1.49935 6.77974L1.14658 6.4711V6.48577C1.14658 7.52939 1.45523 8.4847 2.07255 9.32255L2.17543 8.8669C2.21954 8.66113 2.42531 8.51413 2.64575 8.54356L4.07146 8.7199C4.21845 8.73457 4.336 8.82278 4.40954 8.9551L5.01219 10.2633C5.1004 10.4544 5.02686 10.6895 4.85052 10.8071L4.45365 11.0423C4.93873 11.204 5.43841 11.2922 5.95282 11.2922C6.46724 11.2922 6.96702 11.204 7.452 11.0423L7.05513 10.8071C6.86403 10.6896 6.79058 10.469 6.89346 10.2633L7.49611 8.9551C7.55489 8.82278 7.68721 8.73466 7.83419 8.7199L9.2599 8.54356C9.48034 8.51413 9.67145 8.66112 9.73022 8.8669L9.84834 9.33722ZM4.43934 5.82437L5.73275 4.88374C5.87974 4.78085 6.08552 4.78085 6.2325 4.88374L7.5259 5.82437C7.6729 5.92726 7.73167 6.11835 7.6729 6.29469L7.17315 7.80863C7.11437 7.98496 6.95271 8.10261 6.77627 8.10261H5.17422C4.99789 8.10261 4.83614 7.98505 4.77735 7.80863L4.2776 6.29469C4.21882 6.11826 4.29236 5.92725 4.43935 5.82437H4.43934Z" fill="#949494"/>
</svg>
