<svg width="18" height="15" viewBox="0 0 18 15" fill="none" xmlns="http://www.w3.org/2000/svg">
<path d="M10.7683 2.61079C10.7683 2.13929 10.581 1.6871 10.2476 1.35371C9.91419 1.02031 9.46201 0.833008 8.99051 0.833008C8.51901 0.833008 8.06683 1.02031 7.73343 1.35371C7.40003 1.6871 7.21273 2.13929 7.21273 2.61079C7.21273 4.09256 7.80829 5.27745 8.99051 6.16634H8.9834M8.9834 6.16634L16.0687 10.1023C16.346 10.2563 16.577 10.4817 16.7379 10.7551C16.8987 11.0284 16.9835 11.3398 16.9834 11.657V12.3886C16.9834 12.8601 16.7961 13.3122 16.4627 13.6456C16.1293 13.979 15.6771 14.1663 15.2056 14.1663H2.76118C2.28968 14.1663 1.8375 13.979 1.5041 13.6456C1.1707 13.3122 0.983398 12.8601 0.983398 12.3886V11.657C0.983315 11.3398 1.06808 11.0284 1.22892 10.7551C1.38975 10.4817 1.62078 10.2563 1.89807 10.1023L8.9834 6.16634Z" stroke="#1B1B1B" stroke-linecap="round" stroke-linejoin="round"/>
</svg>
