<svg width="18" height="15" viewBox="0 0 18 15" fill="none" xmlns="http://www.w3.org/2000/svg">
<path d="M4.4578 11.271L3.3266 12.2137M4.4578 3.72834L3.3266 2.78567M13.509 3.72834L14.6402 2.78567M13.509 11.271L14.6402 12.2137M2.5834 7.49967H0.983398M8.9834 2.16634V0.833008M15.3834 7.49967H16.9834M8.9834 12.833V14.1663M11.2458 9.38501C11.5514 9.13902 11.7952 8.84476 11.9629 8.51942C12.1306 8.19408 12.2189 7.84416 12.2226 7.49008C12.2263 7.136 12.1453 6.78485 11.9844 6.45713C11.8235 6.12941 11.5859 5.83167 11.2855 5.58129C10.985 5.33091 10.6277 5.1329 10.2345 4.99882C9.84118 4.86473 9.41981 4.79726 8.99491 4.80034C8.57002 4.80342 8.15012 4.87698 7.7597 5.01674C7.36929 5.15649 7.01619 5.35965 6.721 5.61434C6.13809 6.11728 5.81555 6.79089 5.82284 7.49008C5.83013 8.18927 6.16667 8.8581 6.75998 9.35252C7.35329 9.84694 8.15588 10.1274 8.99491 10.1335C9.83394 10.1395 10.6423 9.87076 11.2458 9.38501Z" stroke="#949494" stroke-linecap="round" stroke-linejoin="round"/>
</svg>
