<svg width="17" height="17" viewBox="0 0 17 17" fill="none" xmlns="http://www.w3.org/2000/svg">
<path d="M4.89891 1.80751L4.89905 13.6884L1.08865 15.9839L1.08865 15.9839C1.05708 16.0029 1.03171 16.0145 1.01269 16.0214C1.00608 15.9953 1 15.956 1 15.9008V4.89503H1C1 4.71812 1.06314 4.48841 1.18632 4.26559C1.30986 4.04212 1.46655 3.87469 1.60499 3.79069C1.60516 3.79059 1.60532 3.79049 1.60549 3.79039L4.89891 1.80751Z" stroke="white"/>
<path d="M15.7921 1.93304H15.7922L15.9111 1.86137L15.9112 1.86128C15.9427 1.84231 15.968 1.83082 15.9869 1.82388C15.9935 1.84995 15.9997 1.88924 15.9997 1.94444L15.9998 12.9509C15.9998 13.1275 15.9367 13.357 15.8135 13.5795C15.6899 13.8029 15.5331 13.9698 15.3951 14.053C15.3951 14.053 15.3951 14.053 15.3951 14.0531L12.1016 16.0376V4.15543L15.7921 1.93304Z" stroke="white"/>
<path d="M6.55078 1.80764L10.4497 4.15567V16.0378L6.55078 13.6886V1.80764Z" stroke="white"/>
</svg>
