<svg width="20" height="21" viewBox="0 0 20 21" fill="none" xmlns="http://www.w3.org/2000/svg">
<path d="M9.52772 3.28838C9.68337 2.8406 10.3166 2.8406 10.4723 3.28838L12.2369 8.36498C12.3056 8.56251 12.4899 8.69645 12.699 8.70071L18.0724 8.81021C18.5464 8.81987 18.7421 9.42214 18.3643 9.70854L14.0815 12.9556C13.9148 13.0819 13.8444 13.2986 13.905 13.4988L15.4613 18.643C15.5986 19.0968 15.0863 19.469 14.6971 19.1983L10.2856 16.1284C10.1139 16.009 9.88607 16.009 9.71441 16.1284L5.30285 19.1983C4.91373 19.469 4.40141 19.0968 4.53868 18.6431L6.09502 13.4988C6.15558 13.2986 6.08517 13.0819 5.91852 12.9556L1.63569 9.70854C1.25792 9.42214 1.45361 8.81987 1.92757 8.81021L7.301 8.70071C7.51009 8.69645 7.69443 8.56251 7.7631 8.36498L9.52772 3.28838Z" stroke="#949494"/>
</svg>
