<svg width="24" height="24" viewBox="0 0 24 24" fill="none" xmlns="http://www.w3.org/2000/svg">
<rect width="24" height="24" rx="8" fill="#D19C6C"/>
<path fill-rule="evenodd" clip-rule="evenodd" d="M15.8964 8.02771C15.67 8.10031 15.663 8.107 12.789 11.0112L9.96119 13.8687L8.68164 12.5764C7.4931 11.3761 7.39179 11.2793 7.2575 11.2157C6.91614 11.0541 6.55313 11.1052 6.2823 11.3528C6.06743 11.5493 5.96122 11.8619 6.01292 12.1457C6.06584 12.4362 6.03259 12.3983 7.81678 14.1986C9.37752 15.7734 9.47414 15.8666 9.60626 15.9249C9.77356 15.9987 10.0051 16.0211 10.16 15.9787C10.4218 15.9068 10.3097 16.0143 13.6614 12.6224C17.1336 9.10844 16.9353 9.32365 16.988 9.01211C17.0611 8.58084 16.7935 8.16088 16.3613 8.02816C16.2395 7.9908 16.0122 7.99058 15.8964 8.02771Z" fill="white"/>
</svg>
