<svg width="21" height="20" viewBox="0 0 21 20" fill="none" xmlns="http://www.w3.org/2000/svg">
<path d="M10.9834 5.57878V13.0171L14.0283 15.3495L12.8864 11.5043L15.741 9.48707H12.1887L10.9834 5.57878ZM10.9834 16.169L6.28924 19.7306C6.05665 19.9197 5.80291 20.0092 5.52803 19.9991C5.25315 19.989 5.00998 19.91 4.79853 19.7621C4.58708 19.615 4.42342 19.4154 4.30755 19.1632C4.19167 18.9111 4.18618 18.6379 4.29106 18.3438L6.09894 12.5128L1.49994 9.26644C1.2462 9.09834 1.08761 8.87771 1.02418 8.60455C0.960743 8.33139 0.971316 8.07924 1.0559 7.84811C1.14047 7.61697 1.28849 7.41189 1.49994 7.23287C1.71139 7.05384 1.96512 6.96475 2.26115 6.96559H7.93854L9.77814 0.914042C9.88387 0.61987 10.0479 0.393778 10.2704 0.235765C10.4928 0.0777526 10.7305 -0.000833822 10.9834 6.67055e-06C11.2371 6.67055e-06 11.4752 0.0790132 11.6977 0.237026C11.9201 0.395038 12.0838 0.62071 12.1887 0.914042L14.0283 6.96559H19.7056C20.0017 6.96559 20.2554 7.0551 20.4669 7.23413C20.6783 7.41315 20.8263 7.61781 20.9109 7.84811C20.9955 8.07924 21.0061 8.33139 20.9426 8.60455C20.8792 8.87771 20.7206 9.09834 20.4669 9.26644L15.8679 12.5128L17.6757 18.3438C17.7815 18.6379 17.7764 18.9111 17.6605 19.1632C17.5446 19.4154 17.3806 19.615 17.1683 19.7621C16.9568 19.9092 16.7136 19.9882 16.4388 19.9991C16.1639 20.01 15.9101 19.9205 15.6776 19.7306L10.9834 16.169Z" fill="#1B1B1B"/>
</svg>
