<svg width="24" height="13" viewBox="0 0 24 13" fill="none" xmlns="http://www.w3.org/2000/svg">
<path d="M22.9648 8.68967V2.5103C22.9648 1.94929 22.5101 1.49451 21.9491 1.49451H21.3988C21.1417 1.49451 20.9333 1.70295 20.9333 1.96008V1.96008C20.9333 2.21721 20.7248 2.42565 20.4677 2.42565L15.9924 2.42565C15.5577 2.42565 15.2054 2.07328 15.2054 1.6386V1.6386C15.2054 1.09811 14.6731 0.718458 14.162 0.894443L2.42338 4.9369C1.87786 5.12501 0.786834 5.92447 0.786834 7.61745C0.786834 8.032 0.888341 8.38733 1.05407 8.68967M22.9648 8.68967V8.92465C22.9648 9.60521 22.4131 10.1569 21.7326 10.1569L3.3263 10.1569C2.68708 10.0504 1.56518 9.62205 1.05407 8.68967M22.9648 8.68967H12.0095L1.05407 8.68967M11.8758 1.68175L12.4402 3.26186M10.2675 2.23561L10.8318 3.81572M8.60275 2.8089L9.16707 4.38902M6.90977 3.39192L7.4741 4.97203" stroke="white" stroke-width="1.04617" stroke-linecap="round"/>
<path d="M21.0522 11.569L21.3857 10.1582H19.3542L19.6877 11.569H21.0522Z" stroke="white" stroke-width="1.04617" stroke-linecap="round" stroke-linejoin="round"/>
<path d="M17.8872 11.569L18.2207 10.1582H16.1891L16.5227 11.569H17.8872Z" stroke="white" stroke-width="1.04617" stroke-linecap="round" stroke-linejoin="round"/>
<path d="M5.47993 11.569L5.81348 10.1582H3.7819L4.11545 11.569H5.47993Z" stroke="white" stroke-width="1.04617" stroke-linecap="round" stroke-linejoin="round"/>
<path d="M8.64204 11.569L8.97559 10.1582H6.94401L7.27755 11.569H8.64204Z" stroke="white" stroke-width="1.04617" stroke-linecap="round" stroke-linejoin="round"/>
<path d="M11.7993 11.569L12.1328 10.1582H10.1012L10.4348 11.569H11.7993Z" stroke="white" stroke-width="1.04617" stroke-linecap="round" stroke-linejoin="round"/>
</svg>
