<svg width="18" height="22" viewBox="0 0 18 22" fill="none" xmlns="http://www.w3.org/2000/svg">
<path d="M5.44444 3.15186H3.22222C2.63285 3.15186 2.06762 3.38598 1.65087 3.80273C1.23413 4.21948 1 4.78471 1 5.37408V18.7074C1 19.2968 1.23413 19.862 1.65087 20.2788C2.06762 20.6955 2.63285 20.9296 3.22222 20.9296H14.3333C14.9227 20.9296 15.4879 20.6955 15.9047 20.2788C16.3214 19.862 16.5556 19.2968 16.5556 18.7074V5.37408C16.5556 4.78471 16.3214 4.21948 15.9047 3.80273C15.4879 3.38598 14.9227 3.15186 14.3333 3.15186H12.1111" stroke="#1B1B1B" stroke-linecap="round" stroke-linejoin="round"/>
<path d="M5.44434 10.9297H12.111M5.44434 15.3741H12.111M5.44434 3.15191C5.44434 2.56254 5.67846 1.99731 6.09521 1.58056C6.51196 1.16381 7.07719 0.929688 7.66656 0.929688H9.88878C10.4782 0.929688 11.0434 1.16381 11.4601 1.58056C11.8769 1.99731 12.111 2.56254 12.111 3.15191C12.111 3.74128 11.8769 4.30651 11.4601 4.72326C11.0434 5.14001 10.4782 5.37413 9.88878 5.37413H7.66656C7.07719 5.37413 6.51196 5.14001 6.09521 4.72326C5.67846 4.30651 5.44434 3.74128 5.44434 3.15191Z" stroke="#1B1B1B" stroke-linecap="round" stroke-linejoin="round"/>
</svg>
