<svg width="25" height="24" viewBox="0 0 25 24" fill="none" xmlns="http://www.w3.org/2000/svg">
<g clip-path="url(#clip0_9939_43936)">
<path d="M23.7836 7.80059V16.2006V7.80059ZM4.58359 20.4006H21.3836C22.7091 20.4006 23.7836 19.1469 23.7836 17.6006V6.40058C23.7836 4.85419 22.7091 3.60059 21.3836 3.60059H4.58359C3.25811 3.60059 2.18359 4.85419 2.18359 6.40058V17.6006C2.18359 19.1469 3.25811 20.4006 4.58359 20.4006Z" fill="#1B1B1B"/>
<path d="M23.7836 7.80059V16.2006M4.58359 20.4006H21.3836C22.7091 20.4006 23.7836 19.1469 23.7836 17.6006V6.40058C23.7836 4.85419 22.7091 3.60059 21.3836 3.60059H4.58359C3.25811 3.60059 2.18359 4.85419 2.18359 6.40058V17.6006C2.18359 19.1469 3.25811 20.4006 4.58359 20.4006Z" stroke="#1B1B1B" stroke-linecap="round" stroke-linejoin="round"/>
<path d="M23.7832 8.40039H15.2118C13.3182 8.40039 11.7832 10.0121 11.7832 12.0004C11.7832 13.9887 13.3182 15.6004 15.2118 15.6004H23.7832" stroke="white" stroke-linecap="round" stroke-linejoin="round"/>
<path d="M15.3838 12C15.3838 12.0039 15.3838 12.01 15.3838 12.01" stroke="white" stroke-width="3" stroke-linecap="round" stroke-linejoin="round"/>
</g>
<defs>
<clipPath id="clip0_9939_43936">
<rect width="24" height="24" fill="white" transform="translate(0.983398)"/>
</clipPath>
</defs>
</svg>
