<svg width="24" height="25" viewBox="0 0 24 25" fill="none" xmlns="http://www.w3.org/2000/svg">
<path d="M12 0.865723C15.1826 0.865723 18.2348 2.13 20.4853 4.38044C22.7357 6.63088 24 9.68312 24 12.8657C24 16.0483 22.7357 19.1006 20.4853 21.351C18.2348 23.6014 15.1826 24.8657 12 24.8657C8.8174 24.8657 5.76515 23.6014 3.51472 21.351C1.26428 19.1006 0 16.0483 0 12.8657C0 9.68312 1.26428 6.63088 3.51472 4.38044C5.76515 2.13 8.8174 0.865723 12 0.865723ZM12 6.00858C11.7824 6.00839 11.5671 6.0536 11.3679 6.14132C11.1687 6.22904 10.99 6.35733 10.8432 6.51801C10.6964 6.67869 10.5847 6.86822 10.5153 7.0745C10.4459 7.28077 10.4202 7.49926 10.44 7.71601L11.0657 14.5834C11.09 14.8143 11.1989 15.028 11.3714 15.1834C11.5439 15.3387 11.7678 15.4247 12 15.4247C12.2322 15.4247 12.4561 15.3387 12.6286 15.1834C12.8011 15.028 12.91 14.8143 12.9343 14.5834L13.5583 7.71601C13.5781 7.49941 13.5525 7.28106 13.4832 7.0749C13.4138 6.86874 13.3023 6.6793 13.1557 6.51864C13.0091 6.35799 12.8306 6.22966 12.6316 6.14184C12.4326 6.05402 12.2175 6.00863 12 6.00858ZM12 19.7229C12.3637 19.7229 12.7126 19.5784 12.9697 19.3212C13.2269 19.064 13.3714 18.7152 13.3714 18.3514C13.3714 17.9877 13.2269 17.6389 12.9697 17.3817C12.7126 17.1245 12.3637 16.98 12 16.98C11.6363 16.98 11.2874 17.1245 11.0303 17.3817C10.7731 17.6389 10.6286 17.9877 10.6286 18.3514C10.6286 18.7152 10.7731 19.064 11.0303 19.3212C11.2874 19.5784 11.6363 19.7229 12 19.7229Z" fill="#1B1B1B"/>
</svg>
